<?xml version="1.0" ?>
<!-- Uploaded to: SVG Repo, www.svgrepo.com, Generator: SVG Repo Mixer Tools -->
<svg width="800px" height="800px" viewBox="0 0 256 256" xmlns="http://www.w3.org/2000/svg">
<path d="m193.45 217.72c-1 10.67-4.69 16.54-15.28 17.88s-88.6 1.33-99.88-.2-14.29-6.73-15.42-17.68-1.53-169.45 0-181.08 5.43-16.46 15.83-17.41 86.6-.77 97.3 0 16.49 7.61 17.45 17.41.96 170.36 0 181.08z" fill="#191919"/>
<path d="m132.27 244.56c-24 0-49.1-.43-55-1.23-17.56-2.39-21.1-13.32-22.3-24.77-1.08-10.26-1.67-170.15 0-183 2.63-19.93 13.69-23.47 23-24.33 10.81-1 87.69-.79 98.6 0 13.93 1 23.45 10.43 24.84 24.61 1 10.63 1 171 0 182.58-2 22.55-17.24 24.47-22.24 25.1-5.46.71-25.74 1.04-46.9 1.04zm-9.09-218c-20 0-39.05.19-43.74.62s-5.59 1.6-6 2c-1.19 1.34-2.08 4.18-2.64 8.44-1.27 9.64-1.25 167.07 0 179.2.84 8 1.61 9.65 8.54 10.59 9.84 1.34 87.53 1.49 97.79.19 5.17-.65 7.53-1.86 8.32-10.66.94-10.5.95-169.95 0-179.59-.84-8.57-6.14-9.93-10.06-10.21-5.39-.32-29.39-.56-52.21-.56z" fill="#191919"/>
<path d="m193.45 217.72c-1 10.67-4.69 16.54-15.28 17.88s-88.6 1.33-99.88-.2-14.29-6.73-15.42-17.68-1.53-169.45 0-181.08 5.43-16.46 15.83-17.41 86.6-.77 97.3 0 16.49 7.61 17.45 17.41.96 170.36 0 181.08z" fill="#ffffff"/>
<path d="m179.68 37.38c-.52-5-5.56-6-10.54-6.16-14-.38-5.66 10.76-18.47 10.62-6-.06-40.15-.06-46.11 0-12.8.13-4.47-11-18.47-10.62-5 .13-9.64.73-9.74 6.16-.19 10.51-1.18 165.8 0 178.27.37 3.56 2.09 5.23 6.21 5.87 3.65.56 86.41.7 90.83 0 4.12-.65 5.84-2.32 6.21-5.87 1.26-12.47 1.17-167.82.08-178.27z" fill="#e83a2a"/>
<g>
<path d="m110.77 101.55c-4.32 2.74-3 58.88-.53 62.19s49.8-26.49 49.85-31.8-44.99-33.13-49.32-30.39z" fill="#ffffff"/>
</g>
</svg>